<?xml version="1.0" encoding="UTF-8" standalone="no"?>
<svg
   xmlns:dc="http://purl.org/dc/elements/1.1/"
   xmlns:cc="http://creativecommons.org/ns#"
   xmlns:rdf="http://www.w3.org/1999/02/22-rdf-syntax-ns#"
   xmlns:svg="http://www.w3.org/2000/svg"
   xmlns="http://www.w3.org/2000/svg"
   xmlns:sodipodi="http://sodipodi.sourceforge.net/DTD/sodipodi-0.dtd"
   xmlns:inkscape="http://www.inkscape.org/namespaces/inkscape"
   sodipodi:docname="PL23px.svg"
   inkscape:version="1.0 (4035a4fb49, 2020-05-01)"
   id="svg8"
   version="1.1"
   viewBox="0 0 4.3017764 6.0854169"
   height="6.0854168mm"
   width="4.3017764mm"
   inkscape:export-filename="C:\Users\charl\OneDrive\Professional\PL23px.png"
   inkscape:export-xdpi="96"
   inkscape:export-ydpi="96">
  <defs
     id="defs2">
    <rect
       x="-408.45001"
       y="60.579853"
       width="72.697311"
       height="72.162773"
       id="rect904" />
    <rect
       x="-263.52774"
       y="335.15598"
       width="41.159508"
       height="49.177593"
       id="rect872" />
    <rect
       id="rect853"
       height="24.946428"
       width="33.261906"
       y="198.81548"
       x="148.16667" />
    <rect
       id="rect847"
       height="38.175594"
       width="29.860119"
       y="49.136906"
       x="144.3869" />
    <rect
       id="rect841"
       height="23.056547"
       width="40.82143"
       y="34.773811"
       x="49.892857" />
    <rect
       id="rect835"
       height="97.139877"
       width="68.791664"
       y="93.360123"
       x="57.830357" />
    <rect
       id="rect904-4"
       height="72.162773"
       width="72.697311"
       y="60.579853"
       x="-408.45001" />
    <rect
       id="rect917"
       height="72.162773"
       width="72.697311"
       y="60.579853"
       x="-408.45001" />
  </defs>
  <sodipodi:namedview
     inkscape:window-maximized="1"
     inkscape:window-y="-8"
     inkscape:window-x="-8"
     inkscape:window-height="1017"
     inkscape:window-width="1920"
     inkscape:object-paths="true"
     inkscape:snap-bbox-edge-midpoints="true"
     inkscape:snap-bbox="true"
     showgrid="false"
     inkscape:document-rotation="0"
     inkscape:current-layer="text902-2"
     inkscape:document-units="mm"
     inkscape:cy="11.478859"
     inkscape:cx="10.57054"
     inkscape:zoom="22.4"
     inkscape:pageshadow="2"
     inkscape:pageopacity="0.0"
     borderopacity="1.0"
     bordercolor="#666666"
     pagecolor="#ffffff"
     id="base" />
  <metadata
     id="metadata5">
    <rdf:RDF>
      <cc:Work
         rdf:about="">
        <dc:format>image/svg+xml</dc:format>
        <dc:type
           rdf:resource="http://purl.org/dc/dcmitype/StillImage" />
        <dc:title />
      </cc:Work>
    </rdf:RDF>
  </metadata>
  <g
     id="layer1"
     inkscape:groupmode="layer"
     inkscape:label="Layer 1"
     transform="translate(266.08406,-69.308767)">
    <g
       id="g950"
       transform="matrix(0.04252586,0,0,0.04252586,-255.60123,66.316346)">
      <path
         id="path942"
         style="fill:none;stroke:#000000;stroke-width:8;stroke-miterlimit:4;stroke-dasharray:none;stroke-opacity:1"
         d="m -192.38289,91.936104 c -0.5617,0.002 -1.12333,0.013 -1.68465,0.0336 h 3.67316 c -0.61297,-0.0224 -1.2263,-0.0336 -1.83968,-0.0336 -0.0496,-7e-5 -0.0992,-7e-5 -0.14883,0 z m -1.68465,0.0336 c -27.03225,0.98658 -48.43727,23.186976 -48.43735,50.237226 7e-5,27.05026 21.40508,49.25068 48.43735,50.23726 m 0,0 c 0.6109,0.0223 1.22217,0.0335 1.83348,0.0336 0.60959,-1.1e-4 1.21913,-0.0113 1.82831,-0.0336 h -3.66179"
         sodipodi:nodetypes="cccccccccccc" />
      <path
         style="fill:none;stroke:#000000;stroke-width:8.13459;stroke-linecap:butt;stroke-linejoin:miter;stroke-miterlimit:4;stroke-dasharray:none;stroke-opacity:1"
         d="m -190.39438,84.753424 c 0,119.101576 0,119.101576 0,119.101576"
         id="path955" />
      <path
         sodipodi:nodetypes="cc"
         style="fill:none;stroke:#000000;stroke-width:8;stroke-linecap:butt;stroke-linejoin:miter;stroke-miterlimit:4;stroke-dasharray:none;stroke-opacity:1"
         d="m -228.25051,74.30112 c 81.07532,14.910995 82.06324,15.092704 82.06324,15.092704"
         id="path957" />
      <g
         style="font-style:normal;font-variant:normal;font-weight:normal;font-stretch:normal;font-size:11.2889px;line-height:1.25;font-family:'OCR A Extended';-inkscape-font-specification:'OCR A Extended, Normal';font-variant-ligatures:normal;font-variant-caps:normal;font-variant-numeric:normal;font-variant-east-asian:normal;letter-spacing:0px;word-spacing:0px;white-space:pre;shape-inside:url(#rect904-4)"
         id="text902-2"
         transform="matrix(4.596173,0,0,4.596173,1671.8166,-205.71664)"
         aria-label="3">
        <path
           id="path848"
           style="font-style:normal;font-variant:normal;font-weight:normal;font-stretch:normal;font-size:25.4px;font-family:'OCR A Extended';-inkscape-font-specification:'OCR A Extended';font-variant-ligatures:normal;font-variant-caps:normal;font-variant-numeric:normal;font-variant-east-asian:normal"
           d="m -395.38955,69.342103 v 3.906738 q 0,1.364258 -0.84336,2.207617 0.86816,0.967383 0.86816,2.108398 v 4.067969 q 0,0.855762 -0.62011,1.475879 -0.62012,0.607715 -1.48828,0.607715 h -7.367 q -0.43408,0 -0.74414,-0.297657 -0.29765,-0.310058 -0.29765,-0.74414 0,-0.434082 0.29765,-0.731738 0.31006,-0.310059 0.74414,-0.310059 h 7.34219 v -4.067969 q 0,-0.434082 -0.31006,-0.74414 -0.29765,-0.322461 -0.73174,-0.322461 h -4.19199 q -0.43408,0 -0.74414,-0.297656 -0.29766,-0.297657 -0.29766,-0.744141 0,-0.434082 0.29766,-0.731738 0.31006,-0.310059 0.74414,-0.310059 h 4.2168 q 0.42168,0 0.73174,-0.297656 0.31006,-0.310059 0.31006,-0.744141 v -4.030761 h -7.44141 q -0.43408,0 -0.74414,-0.297657 -0.29766,-0.310058 -0.29766,-0.74414 0,-0.434082 0.29766,-0.731739 0.31006,-0.310058 0.74414,-0.310058 h 7.44141 q 0.86816,0 1.47587,0.620117 0.60772,0.607715 0.60772,1.463477 z" />
      </g>
      <path
         id="path957-3"
         d="m -228.30766,209.53229 c 81.07532,-14.911 82.06324,-15.0927 82.06324,-15.0927"
         style="fill:none;stroke:#000000;stroke-width:7.99999;stroke-linecap:butt;stroke-linejoin:miter;stroke-miterlimit:4;stroke-dasharray:none;stroke-opacity:1"
         sodipodi:nodetypes="cc" />
    </g>
  </g>
</svg>
